# Blender v2.78 (sub 0) OBJ File: 'GeneratorTower.blend'
# www.blender.org
mtllib GeneratorTowerObject.mtl
o Cube
v 0.367275 4.604971 -0.451710
v 0.367275 3.104970 -0.005215
v 0.367275 3.104970 -0.898204
v 0.813769 3.104970 -0.451709
v -0.079220 3.104970 -0.451710
v 0.367275 3.054971 -0.898204
v 0.367275 3.054971 -0.005215
v 0.367275 3.204971 -0.599540
v 0.219444 3.204971 -0.451710
v 0.367275 3.204971 -0.303879
v 0.515105 3.204971 -0.451710
v -0.032082 3.104970 -0.651388
v 0.167597 3.104970 -0.851067
v 0.766632 3.104970 -0.651388
v 0.566953 3.104970 -0.851066
v 0.766632 3.104970 -0.252031
v 0.566953 3.104970 -0.052353
v -0.032082 3.104970 -0.252031
v 0.167596 3.104970 -0.052353
v 0.367275 0.554971 -0.818106
v 0.367275 0.554971 -0.085313
v 0.203417 0.554971 -0.123995
v 0.039560 0.554971 -0.287852
v 0.531132 0.554971 -0.123995
v 0.694989 0.554971 -0.287852
v 0.531132 0.554971 -0.779424
v 0.694990 0.554971 -0.615567
v 0.203418 0.554971 -0.779424
v 0.039560 0.554971 -0.615567
v 0.000879 0.554971 -0.451710
v 0.733671 0.554971 -0.451710
v 0.564425 2.404938 -0.451710
v 0.170125 2.404938 -0.451710
v 0.190938 2.404938 -0.539878
v 0.279107 2.404938 -0.628046
v 0.543611 2.404938 -0.539878
v 0.455443 2.404938 -0.628046
v 0.543611 2.404938 -0.363541
v 0.455443 2.404938 -0.275373
v 0.190938 2.404938 -0.363542
v 0.279107 2.404938 -0.275373
v 0.367275 2.404938 -0.254560
v 0.367275 2.404938 -0.648860
v 0.367275 2.554971 -0.894936
v 0.367275 2.554971 -0.008483
v 0.169058 2.554971 -0.055276
v -0.029159 2.554971 -0.253493
v 0.565491 2.554971 -0.055276
v 0.763708 2.554971 -0.253493
v 0.565492 2.554971 -0.848143
v 0.763709 2.554971 -0.649926
v 0.169058 2.554971 -0.848143
v -0.029159 2.554971 -0.649927
v -0.075952 2.554971 -0.451710
v 0.810501 2.554971 -0.451709
v 0.810501 2.604970 -0.451709
v -0.075952 2.604970 -0.451710
v -0.029159 2.604970 -0.649927
v 0.169058 2.604970 -0.848143
v 0.763709 2.604970 -0.649926
v 0.565492 2.604970 -0.848143
v 0.763708 2.604970 -0.253493
v 0.565491 2.604970 -0.055276
v -0.029159 2.604970 -0.253493
v 0.169058 2.604970 -0.055276
v 0.367275 2.604970 -0.008483
v 0.367275 2.604970 -0.894936
v 0.367275 2.604970 -0.800008
v 0.367275 2.604970 -0.103411
v 0.211511 2.604970 -0.140182
v 0.055747 2.604970 -0.295946
v 0.523039 2.604970 -0.140182
v 0.678802 2.604970 -0.295946
v 0.523039 2.604970 -0.763237
v 0.678803 2.604970 -0.607473
v 0.211511 2.604970 -0.763237
v 0.055747 2.604970 -0.607474
v 0.018976 2.604970 -0.451710
v 0.715573 2.604970 -0.451710
v 0.715573 3.054971 -0.451710
v 0.018976 3.054971 -0.451710
v 0.055747 3.054971 -0.607474
v 0.211511 3.054971 -0.763237
v 0.678803 3.054971 -0.607473
v 0.523039 3.054971 -0.763237
v 0.678802 3.054971 -0.295946
v 0.523039 3.054971 -0.140182
v 0.055747 3.054971 -0.295946
v 0.211511 3.054971 -0.140182
v 0.367275 3.054971 -0.103411
v 0.367275 3.054971 -0.800008
v 0.167596 3.054971 -0.052353
v -0.032082 3.054971 -0.252031
v 0.566953 3.054971 -0.052353
v 0.766632 3.054971 -0.252031
v 0.566953 3.054971 -0.851066
v 0.766632 3.054971 -0.651388
v 0.167597 3.054971 -0.851067
v -0.032082 3.054971 -0.651388
v -0.079220 3.054971 -0.451710
v 0.813769 3.054971 -0.451709
vt 0.6528 0.0154
vt 0.6028 0.0041
vt 0.5516 0.3458
vt 0.8235 0.9772
vt 0.7731 0.9772
vt 0.7731 0.9649
vt 0.8235 0.9649
vt 0.7702 0.7404
vt 0.8152 0.7630
vt 0.7998 0.7815
vt 0.7647 0.7639
vt 0.3637 0.9772
vt 0.3134 0.9772
vt 0.3134 0.9649
vt 0.3637 0.9649
vt 0.7038 0.9772
vt 0.7038 0.9649
vt 0.7717 0.6874
vt 0.7718 0.6354
vt 0.8468 0.6534
vt 0.5450 0.5773
vt 0.5265 0.5896
vt 0.2675 0.2142
vt 0.3020 0.1915
vt 0.6112 0.5419
vt 0.5911 0.5514
vt 0.3876 0.1433
vt 0.4250 0.1257
vt 0.4845 0.6217
vt 0.4679 0.6364
vt 0.1586 0.3013
vt 0.1896 0.2739
vt 0.6371 0.4452
vt 0.5986 0.3823
vt 0.6667 0.3656
vt 0.6815 0.3907
vt 0.7388 0.2423
vt 0.7867 0.2660
vt 0.7424 0.3206
vt 0.7235 0.3108
vt 0.8015 0.4305
vt 0.7385 0.4691
vt 0.7217 0.4008
vt 0.7468 0.3860
vt 0.3634 0.9900
vt 0.3134 0.9900
vt 0.3134 0.9777
vt 0.3634 0.9777
vt 0.9386 0.9900
vt 0.8698 0.9900
vt 0.8698 0.9777
vt 0.9386 0.9777
vt 0.6010 0.9900
vt 0.5322 0.9900
vt 0.5322 0.9777
vt 0.6010 0.9777
vt 0.5384 0.7655
vt 0.4843 0.7655
vt 0.4770 0.7434
vt 0.5458 0.7434
vt 0.4509 0.7862
vt 0.4303 0.8196
vt 0.4082 0.8122
vt 0.4344 0.7697
vt 0.4509 0.9071
vt 0.4843 0.9277
vt 0.4770 0.9498
vt 0.4344 0.9235
vt 0.3137 0.9235
vt 0.2228 0.9815
vt 0.1914 0.8565
vt 0.2100 0.8468
vt 0.2212 0.6612
vt 0.2872 0.6926
vt 0.2087 0.7955
vt 0.1947 0.7867
vt 0.0562 0.7182
vt 0.1474 0.6608
vt 0.1787 0.7854
vt 0.1602 0.7957
vt 0.7702 0.9538
vt 0.7198 0.9538
vt 0.7254 0.9303
vt 0.7647 0.9303
vt 0.9671 0.7334
vt 0.9070 0.7708
vt 0.8726 0.6961
vt 0.9153 0.6699
vt 0.6383 0.8723
vt 0.6383 0.8219
vt 0.6618 0.8275
vt 0.6618 0.8667
vt 0.8517 0.8219
vt 0.8517 0.8723
vt 0.8282 0.8667
vt 0.8282 0.8275
vt 0.6031 0.9772
vt 0.5338 0.9772
vt 0.5338 0.9649
vt 0.6031 0.9649
vt 0.6534 0.9772
vt 0.6534 0.9649
vt 0.8552 0.7709
vt 0.8090 0.7479
vt 0.6748 0.9313
vt 0.6902 0.9127
vt 0.8739 0.9772
vt 0.8739 0.9649
vt 0.8292 0.9173
vt 0.8107 0.9019
vt 0.7198 0.7404
vt 0.7254 0.7639
vt 0.3435 0.7841
vt 0.2179 0.8158
vt 0.0251 0.8585
vt 0.0253 0.7846
vt 0.1518 0.8103
vt 0.1507 0.8272
vt 0.0823 0.9504
vt 0.1605 0.8468
vt 0.1489 0.9815
vt 0.1749 0.8553
vt 0.4303 0.8736
vt 0.4082 0.8810
vt 0.5718 0.7862
vt 0.5883 0.7697
vt 0.5718 0.9071
vt 0.5925 0.8736
vt 0.6146 0.8810
vt 0.5883 0.9235
vt 0.5384 0.9277
vt 0.5458 0.9498
vt 0.6510 0.9900
vt 0.6510 0.9777
vt 0.7698 0.9900
vt 0.7010 0.9900
vt 0.7010 0.9777
vt 0.7698 0.9777
vt 0.9886 0.9900
vt 0.9886 0.9777
vt 0.4322 0.9900
vt 0.4322 0.9777
vt 0.4822 0.9900
vt 0.4822 0.9777
vt 0.6850 0.4691
vt 0.7004 0.4005
vt 0.5987 0.3288
vt 0.6227 0.2810
vt 0.6773 0.3256
vt 0.6672 0.3444
vt 0.6853 0.2424
vt 0.7023 0.3105
vt 0.8254 0.3290
vt 0.7571 0.3458
vt 0.8254 0.3825
vt 0.7567 0.3671
vt 0.4165 0.6911
vt 0.3978 0.7153
vt 0.0284 0.4480
vt 0.0631 0.4029
vt 0.5641 0.5659
vt 0.3374 0.1702
vt 0.5018 0.6077
vt 0.2216 0.2478
vt 0.4309 0.6741
vt 0.0899 0.3714
vt 0.4460 0.6578
vt 0.1179 0.3411
vt 0.8558 0.5523
vt 0.8893 0.6270
vt 0.7953 0.5891
vt 0.9071 0.5526
vt 0.9716 0.1532
vt 0.9232 0.1831
vt 0.8819 0.1831
vt 0.8449 0.1647
vt 0.8150 0.1163
vt 0.8150 0.0749
vt 0.8335 0.0380
vt 0.8819 0.0081
vt 0.9232 0.0081
vt 0.9602 0.0266
vt 0.9901 0.0749
vt 0.9901 0.1163
vt 0.9432 0.9772
vt 0.9432 0.9649
vt 0.9935 0.9772
vt 0.9935 0.9649
vt 0.4834 0.9772
vt 0.4330 0.9772
vt 0.4330 0.9649
vt 0.4834 0.9649
vt 0.7006 0.0341
vt 0.5516 0.0003
vt 0.7452 0.0596
vt 0.3852 0.7336
vt 0.0049 0.4819
vt 0.8198 0.9900
vt 0.8198 0.9777
vt 0.5925 0.8196
vt 0.6146 0.8122
vt 0.3438 0.8571
vt 0.2179 0.8324
vt 0.6609 0.7769
vt 0.6794 0.7923
vt 0.9901 0.6873
vt 0.9901 0.6357
vt 0.9529 0.5756
vt 0.8414 0.2228
vt 0.8874 0.1944
vt 0.9267 0.1944
vt 0.9618 0.2120
vt 0.9902 0.2580
vt 0.9902 0.2973
vt 0.9727 0.3324
vt 0.9267 0.3608
vt 0.8874 0.3608
vt 0.8522 0.3433
vt 0.8238 0.2973
vt 0.8238 0.2580
vt 0.8512 0.5234
vt 0.8228 0.4774
vt 0.8228 0.4382
vt 0.8403 0.4030
vt 0.8863 0.3746
vt 0.9256 0.3746
vt 0.9608 0.3922
vt 0.9892 0.4382
vt 0.9892 0.4774
vt 0.9716 0.5126
vt 0.9256 0.5410
vt 0.8863 0.5410
vn 0.7051 0.0745 0.7051
vn 0.9732 0.0000 0.2298
vn 0.0000 -1.0000 -0.0000
vn -0.2298 0.0000 -0.9732
vn 0.7071 0.0000 0.7071
vn -0.3166 0.9456 -0.0747
vn 0.9694 0.0887 0.2288
vn 0.2288 0.0887 -0.9694
vn -0.2288 0.0887 0.9694
vn -0.3823 -0.8412 0.3823
vn 0.1220 -0.8474 -0.5167
vn 0.3823 -0.8412 0.3823
vn 0.7071 0.0000 -0.7071
vn -0.7071 0.0000 0.7071
vn 0.0000 1.0000 -0.0000
vn 0.2298 0.0000 -0.9732
vn -0.7071 0.0000 -0.7071
vn 0.2115 0.9542 -0.2115
vn 0.2298 0.0000 0.9732
vn 0.0747 0.9456 -0.3166
vn -0.2115 0.9542 -0.2115
vn -0.0747 0.9456 -0.3166
vn 0.9732 0.0000 -0.2298
vn -0.9732 0.0000 0.2298
vn -0.2298 0.0000 0.9732
vn -0.9732 0.0000 -0.2298
vn 0.1220 -0.8474 0.5167
vn -0.5167 -0.8474 -0.1220
vn -0.1220 -0.8474 -0.5167
vn -0.5167 -0.8474 0.1220
vn 0.3823 -0.8412 -0.3823
vn 0.5167 -0.8474 0.1220
vn -0.7045 0.0865 -0.7045
vn 0.9694 0.0887 -0.2288
vn 0.7045 0.0865 0.7045
vn -0.9694 0.0887 -0.2288
vn -0.9694 0.0887 0.2288
vn 0.2288 0.0887 0.9694
vn -0.2115 0.9542 0.2115
vn -0.3166 0.9456 0.0747
vn -0.0747 0.9456 0.3166
vn -0.7051 0.0745 0.7051
vn 0.7051 0.0745 -0.7051
vn -0.7051 0.0745 -0.7051
vn -0.2288 0.0887 -0.9694
vn 0.7045 0.0865 -0.7045
vn -0.7045 0.0865 0.7045
vn -0.3823 -0.8412 -0.3823
vn -0.1220 -0.8474 0.5167
vn 0.5167 -0.8474 -0.1220
vn 0.3166 0.9456 -0.0747
vn 0.3166 0.9456 0.0747
vn 0.2115 0.9542 0.2115
vn 0.0747 0.9456 0.3166
usemtl Material
s off
f 10/1/1 11/2/1 1/3/1
f 4/4/2 16/5/2 95/6/2 101/7/2
f 6/8/3 96/9/3 85/10/3 91/11/3
f 13/12/4 3/13/4 6/14/4 98/15/4
f 16/5/5 17/16/5 94/17/5 95/6/5
f 12/18/6 5/19/6 9/20/6
f 32/21/7 38/22/7 25/23/7 31/24/7
f 43/25/8 37/26/8 26/27/8 20/28/8
f 42/29/9 41/30/9 22/31/9 21/32/9
f 46/33/10 47/34/10 40/35/10 41/36/10
f 44/37/11 50/38/11 37/39/11 43/40/11
f 49/41/12 48/42/12 39/43/12 38/44/12
f 59/45/4 67/46/4 44/47/4 52/48/4
f 61/49/13 60/50/13 51/51/13 50/52/13
f 65/53/14 64/54/14 47/55/14 46/56/14
f 73/57/15 72/58/15 63/59/15 62/60/15
f 69/61/15 70/62/15 65/63/15 66/64/15
f 78/65/15 77/66/15 58/67/15 57/68/15
f 86/69/5 87/70/5 72/71/5 73/72/5
f 91/73/16 85/74/16 74/75/16 68/76/16
f 82/77/17 83/78/17 76/79/17 77/80/17
f 94/81/3 7/82/3 90/83/3 87/84/3
f 14/85/18 15/86/18 8/87/18 11/88/18
f 93/89/3 100/90/3 81/91/3 88/92/3
f 97/93/3 101/94/3 80/95/3 84/96/3
f 96/9/3 97/93/3 84/96/3 85/10/3
f 19/97/14 18/98/14 93/99/14 92/100/14
f 17/16/19 2/101/19 7/102/19 94/17/19
f 8/87/20 15/86/20 3/103/20
f 13/104/21 12/18/21 9/20/21 8/87/21
f 3/103/22 13/104/22 8/87/22
f 92/105/3 93/89/3 88/92/3 89/106/3
f 14/107/23 4/4/23 101/7/23 97/108/23
f 101/94/3 95/109/3 86/110/3 80/95/3
f 98/111/3 6/8/3 91/11/3 83/112/3
f 85/74/13 84/113/13 75/114/13 74/75/13
f 88/115/24 81/116/24 78/117/24 71/118/24
f 89/119/14 88/115/14 71/118/14 70/120/14
f 87/70/19 90/121/19 69/122/19 72/71/19
f 90/121/25 89/119/25 70/120/25 69/122/25
f 83/78/4 91/73/4 68/76/4 76/79/4
f 71/123/15 78/65/15 57/68/15 64/124/15
f 79/125/15 73/57/15 62/60/15 56/126/15
f 68/127/15 74/128/15 61/129/15 67/130/15
f 72/58/15 69/61/15 66/64/15 63/59/15
f 77/66/15 76/131/15 59/132/15 58/67/15
f 76/131/15 68/127/15 67/130/15 59/132/15
f 66/133/25 65/53/25 46/56/25 45/134/25
f 62/135/5 63/136/5 48/137/5 49/138/5
f 67/139/16 61/49/16 50/52/16 44/140/16
f 58/141/17 59/45/17 52/48/17 53/142/17
f 64/54/24 57/143/24 54/144/24 47/55/24
f 57/143/26 58/141/26 53/142/26 54/144/26
f 48/42/27 45/145/27 42/146/27 39/43/27
f 54/147/28 53/148/28 34/149/28 33/150/28
f 52/151/29 44/37/29 43/40/29 35/152/29
f 47/34/30 54/147/30 33/150/30 40/35/30
f 50/38/31 51/153/31 36/154/31 37/39/31
f 55/155/32 49/41/32 38/44/32 32/156/32
f 34/157/33 35/158/33 28/159/33 29/160/33
f 36/161/34 32/21/34 31/24/34 27/162/34
f 38/22/35 39/163/35 24/164/35 25/23/35
f 33/165/36 34/157/36 29/160/36 30/166/36
f 40/167/37 33/165/37 30/166/37 23/168/37
f 39/163/38 42/29/38 21/32/38 24/164/38
f 19/169/39 10/170/39 9/20/39 18/171/39
f 9/20/40 5/19/40 18/171/40
f 2/172/41 10/170/41 19/169/41
f 7/82/3 92/105/3 89/106/3 90/83/3
f 25/173/3 24/174/3 21/175/3 22/176/3 23/177/3 30/178/3 29/179/3 28/180/3 20/181/3 26/182/3 27/183/3 31/184/3
f 15/185/13 14/107/13 97/108/13 96/186/13
f 3/187/16 15/185/16 96/186/16 6/188/16
f 5/189/26 12/190/26 99/191/26 100/192/26
f 18/98/24 5/189/24 100/192/24 93/99/24
f 2/101/25 19/97/25 92/100/25 7/102/25
f 1/3/42 9/193/42 10/1/42
f 1/3/43 11/2/43 8/194/43
f 1/3/44 8/195/44 9/193/44
f 95/109/3 94/81/3 87/84/3 86/110/3
f 35/158/45 43/196/45 20/197/45 28/159/45
f 37/26/46 36/161/46 27/162/46 26/27/46
f 41/30/47 40/167/47 23/168/47 22/31/47
f 53/148/48 52/151/48 35/152/48 34/149/48
f 45/145/49 46/33/49 41/36/49 42/146/49
f 51/153/50 55/155/50 32/156/50 36/154/50
f 63/136/19 66/133/19 45/134/19 48/137/19
f 56/198/2 62/135/2 49/138/2 55/199/2
f 60/50/23 56/198/23 55/199/23 51/51/23
f 70/62/15 71/123/15 64/124/15 65/63/15
f 74/128/15 75/200/15 60/201/15 61/129/15
f 75/200/15 79/125/15 56/126/15 60/201/15
f 84/113/23 80/202/23 79/203/23 75/114/23
f 80/202/2 86/69/2 73/72/2 79/203/2
f 81/116/26 82/77/26 77/80/26 78/117/26
f 99/204/3 98/111/3 83/112/3 82/205/3
f 12/190/17 13/12/17 98/15/17 99/191/17
f 100/90/3 99/204/3 82/205/3 81/91/3
f 11/88/51 4/206/51 14/85/51
f 4/206/52 11/88/52 16/207/52
f 17/208/53 16/207/53 11/88/53 10/170/53
f 10/170/54 2/172/54 17/208/54
f 71/209/15 70/210/15 69/211/15 72/212/15 73/213/15 79/214/15 75/215/15 74/216/15 68/217/15 76/218/15 77/219/15 78/220/15
f 83/221/15 82/222/15 81/223/15 88/224/15 89/225/15 90/226/15 87/227/15 86/228/15 80/229/15 84/230/15 85/231/15 91/232/15
